<?xml version="1.0" encoding="UTF-8"?>
<!DOCTYPE svg
PUBLIC "-//W3C//DTD SVG 1.1//EN"
       "http://www.w3.org/Graphics/SVG/1.1/DTD/svg11.dtd">
<svg viewBox="15 -5 1485 645" width="1470px" height="650px" xmlns="http://www.w3.org/2000/svg" version="1.1">
   <line x1="1049" y1="480" x2="1059" y2="480" style="stroke:#c00;stroke-width:1;"/>
   <line x1="1340" y1="150" x2="1350" y2="150" style="stroke:#c00;stroke-width:1;"/>
   <line x1="1059" y1="480" x2="1340" y2="150" style="stroke:#c00;stroke-width:1;"/>
   <line x1="1056.5" y1="480" x2="1052.9644660941" y2="483.53553390593" style="stroke:#c00;stroke-width:2;"/>
   <line x1="1056.5" y1="480" x2="1052.9644660941" y2="476.46446609407" style="stroke:#c00;stroke-width:2;"/>
   <line x1="1345" y1="150" x2="1341.4644660941" y2="153.53553390593" style="stroke:#c00;stroke-width:2;"/>
   <line x1="1345" y1="150" x2="1341.4644660941" y2="146.46446609407" style="stroke:#c00;stroke-width:2;"/>
   <line x1="890" y1="180" x2="880" y2="180" style="stroke:#333;stroke-width:1;"/>
   <line x1="880" y1="420" x2="890" y2="420" style="stroke:#333;stroke-width:1;"/>
   <line x1="880" y1="180" x2="880" y2="420" style="stroke:#333;stroke-width:1;"/>
   <line x1="882.5" y1="180" x2="886.03553390593" y2="183.53553390593" style="stroke:#333;stroke-width:2;"/>
   <line x1="882.5" y1="180" x2="886.03553390593" y2="176.46446609407" style="stroke:#333;stroke-width:2;"/>
   <line x1="885" y1="420" x2="881.46446609407" y2="423.53553390593" style="stroke:#333;stroke-width:2;"/>
   <line x1="885" y1="420" x2="881.46446609407" y2="416.46446609407" style="stroke:#333;stroke-width:2;"/>
   <line x1="1049" y1="100" x2="1059" y2="100" style="stroke:#b0b;stroke-width:1;"/>
   <line x1="1340" y1="40" x2="1350" y2="40" style="stroke:#b0b;stroke-width:1;"/>
   <line x1="1059" y1="100" x2="1340" y2="40" style="stroke:#b0b;stroke-width:1;"/>
   <line x1="1056.5" y1="100" x2="1052.9644660941" y2="103.53553390593" style="stroke:#b0b;stroke-width:2;"/>
   <line x1="1056.5" y1="100" x2="1052.9644660941" y2="96.464466094067" style="stroke:#b0b;stroke-width:2;"/>
   <line x1="1345" y1="40" x2="1341.4644660941" y2="43.535533905933" style="stroke:#b0b;stroke-width:2;"/>
   <line x1="1345" y1="40" x2="1341.4644660941" y2="36.464466094067" style="stroke:#b0b;stroke-width:2;"/>
   <line x1="1049" y1="160" x2="1059" y2="160" style="stroke:#cb0;stroke-width:1;"/>
   <line x1="1340" y1="150" x2="1350" y2="150" style="stroke:#cb0;stroke-width:1;"/>
   <line x1="1059" y1="160" x2="1340" y2="150" style="stroke:#cb0;stroke-width:1;"/>
   <line x1="1056.5" y1="160" x2="1052.9644660941" y2="163.53553390593" style="stroke:#cb0;stroke-width:2;"/>
   <line x1="1056.5" y1="160" x2="1052.9644660941" y2="156.46446609407" style="stroke:#cb0;stroke-width:2;"/>
   <line x1="1345" y1="150" x2="1341.4644660941" y2="153.53553390593" style="stroke:#cb0;stroke-width:2;"/>
   <line x1="1345" y1="150" x2="1341.4644660941" y2="146.46446609407" style="stroke:#cb0;stroke-width:2;"/>
   <line x1="609" y1="150" x2="619" y2="150" style="stroke:#c00;stroke-width:1;"/>
   <line x1="880" y1="420" x2="890" y2="420" style="stroke:#c00;stroke-width:1;"/>
   <line x1="619" y1="150" x2="880" y2="420" style="stroke:#c00;stroke-width:1;"/>
   <line x1="616.5" y1="150" x2="612.96446609407" y2="153.53553390593" style="stroke:#c00;stroke-width:2;"/>
   <line x1="616.5" y1="150" x2="612.96446609407" y2="146.46446609407" style="stroke:#c00;stroke-width:2;"/>
   <line x1="885" y1="420" x2="881.46446609407" y2="423.53553390593" style="stroke:#c00;stroke-width:2;"/>
   <line x1="885" y1="420" x2="881.46446609407" y2="416.46446609407" style="stroke:#c00;stroke-width:2;"/>
   <line x1="609" y1="130" x2="619" y2="130" style="stroke:#333;stroke-width:1;"/>
   <line x1="880" y1="40" x2="890" y2="40" style="stroke:#333;stroke-width:1;"/>
   <line x1="619" y1="130" x2="880" y2="40" style="stroke:#333;stroke-width:1;"/>
   <line x1="616.5" y1="130" x2="612.96446609407" y2="133.53553390593" style="stroke:#333;stroke-width:2;"/>
   <line x1="616.5" y1="130" x2="612.96446609407" y2="126.46446609407" style="stroke:#333;stroke-width:2;"/>
   <line x1="885" y1="40" x2="881.46446609407" y2="43.535533905933" style="stroke:#333;stroke-width:2;"/>
   <line x1="885" y1="40" x2="881.46446609407" y2="36.464466094067" style="stroke:#333;stroke-width:2;"/>
   <line x1="189" y1="40" x2="199" y2="40" style="stroke:#cb0;stroke-width:1;"/>
   <line x1="880" y1="40" x2="890" y2="40" style="stroke:#cb0;stroke-width:1;"/>
   <line x1="199" y1="40" x2="880" y2="40" style="stroke:#cb0;stroke-width:1;"/>
   <line x1="196.5" y1="40" x2="192.96446609407" y2="43.535533905933" style="stroke:#cb0;stroke-width:2;"/>
   <line x1="196.5" y1="40" x2="192.96446609407" y2="36.464466094067" style="stroke:#cb0;stroke-width:2;"/>
   <line x1="885" y1="40" x2="881.46446609407" y2="43.535533905933" style="stroke:#cb0;stroke-width:2;"/>
   <line x1="885" y1="40" x2="881.46446609407" y2="36.464466094067" style="stroke:#cb0;stroke-width:2;"/>
   <line x1="1350" y1="190" x2="1340" y2="190" style="stroke:#bbb;stroke-width:1;"/>
   <line x1="1340" y1="300" x2="1350" y2="300" style="stroke:#bbb;stroke-width:1;"/>
   <line x1="1340" y1="190" x2="1340" y2="300" style="stroke:#bbb;stroke-width:1;"/>
   <line x1="1342.5" y1="190" x2="1346.0355339059" y2="193.53553390593" style="stroke:#bbb;stroke-width:2;"/>
   <line x1="1342.5" y1="190" x2="1346.0355339059" y2="186.46446609407" style="stroke:#bbb;stroke-width:2;"/>
   <line x1="1345" y1="300" x2="1341.4644660941" y2="303.53553390593" style="stroke:#bbb;stroke-width:2;"/>
   <line x1="1345" y1="300" x2="1341.4644660941" y2="296.46446609407" style="stroke:#bbb;stroke-width:2;"/>
   <line x1="199" y1="320" x2="209" y2="320" style="stroke:#b0b;stroke-width:1;"/>
   <line x1="880" y1="420" x2="890" y2="420" style="stroke:#b0b;stroke-width:1;"/>
   <line x1="209" y1="320" x2="880" y2="420" style="stroke:#b0b;stroke-width:1;"/>
   <line x1="206.5" y1="320" x2="202.96446609407" y2="323.53553390593" style="stroke:#b0b;stroke-width:2;"/>
   <line x1="206.5" y1="320" x2="202.96446609407" y2="316.46446609407" style="stroke:#b0b;stroke-width:2;"/>
   <line x1="885" y1="420" x2="881.46446609407" y2="423.53553390593" style="stroke:#b0b;stroke-width:2;"/>
   <line x1="885" y1="420" x2="881.46446609407" y2="416.46446609407" style="stroke:#b0b;stroke-width:2;"/>
   <line x1="40" y1="340" x2="30" y2="340" style="stroke:#333;stroke-width:1;"/>
   <line x1="30" y1="200" x2="40" y2="200" style="stroke:#333;stroke-width:1;"/>
   <line x1="30" y1="340" x2="30" y2="200" style="stroke:#333;stroke-width:1;"/>
   <line x1="32.5" y1="340" x2="36.035533905933" y2="343.53553390593" style="stroke:#333;stroke-width:2;"/>
   <line x1="32.5" y1="340" x2="36.035533905933" y2="336.46446609407" style="stroke:#333;stroke-width:2;"/>
   <line x1="35" y1="200" x2="31.464466094067" y2="203.53553390593" style="stroke:#333;stroke-width:2;"/>
   <line x1="35" y1="200" x2="31.464466094067" y2="196.46446609407" style="stroke:#333;stroke-width:2;"/>
   <line x1="639" y1="580" x2="649" y2="580" style="stroke:#bbb;stroke-width:1;"/>
   <line x1="880" y1="420" x2="890" y2="420" style="stroke:#bbb;stroke-width:1;"/>
   <line x1="649" y1="580" x2="880" y2="420" style="stroke:#bbb;stroke-width:1;"/>
   <line x1="646.5" y1="580" x2="642.96446609407" y2="583.53553390593" style="stroke:#bbb;stroke-width:2;"/>
   <line x1="646.5" y1="580" x2="642.96446609407" y2="576.46446609407" style="stroke:#bbb;stroke-width:2;"/>
   <line x1="885" y1="420" x2="881.46446609407" y2="423.53553390593" style="stroke:#bbb;stroke-width:2;"/>
   <line x1="885" y1="420" x2="881.46446609407" y2="416.46446609407" style="stroke:#bbb;stroke-width:2;"/>
   <line x1="199" y1="450" x2="209" y2="450" style="stroke:#b0b;stroke-width:1;"/>
   <line x1="880" y1="420" x2="890" y2="420" style="stroke:#b0b;stroke-width:1;"/>
   <line x1="209" y1="450" x2="880" y2="420" style="stroke:#b0b;stroke-width:1;"/>
   <line x1="206.5" y1="450" x2="202.96446609407" y2="453.53553390593" style="stroke:#b0b;stroke-width:2;"/>
   <line x1="206.5" y1="450" x2="202.96446609407" y2="446.46446609407" style="stroke:#b0b;stroke-width:2;"/>
   <line x1="885" y1="420" x2="881.46446609407" y2="423.53553390593" style="stroke:#b0b;stroke-width:2;"/>
   <line x1="885" y1="420" x2="881.46446609407" y2="416.46446609407" style="stroke:#b0b;stroke-width:2;"/>
   <line x1="40" y1="430" x2="30" y2="430" style="stroke:#c00;stroke-width:1;"/>
   <line x1="30" y1="540" x2="40" y2="540" style="stroke:#c00;stroke-width:1;"/>
   <line x1="30" y1="430" x2="30" y2="540" style="stroke:#c00;stroke-width:1;"/>
   <line x1="32.5" y1="430" x2="36.035533905933" y2="433.53553390593" style="stroke:#c00;stroke-width:2;"/>
   <line x1="32.5" y1="430" x2="36.035533905933" y2="426.46446609407" style="stroke:#c00;stroke-width:2;"/>
   <line x1="35" y1="540" x2="31.464466094067" y2="543.53553390593" style="stroke:#c00;stroke-width:2;"/>
   <line x1="35" y1="540" x2="31.464466094067" y2="536.46446609407" style="stroke:#c00;stroke-width:2;"/>
   <rect width="159" height="20" x="1350" y="10" style="fill:#007;stroke:black;"/>
   <text width="159" height="20" x="1355" y="24" style="fill:#fff;" font-family="Arial" font-size="16px"> categories</text>
   <rect width="159" height="20" x="1350" y="30" style="fill:#aea;stroke:black;"/>
   <text width="159" height="20" x="1355" y="44" style="fill:black;" font-family="Arial" font-size="16px">id</text>
   <rect width="159" height="20" x="1350" y="50" style="fill:none;stroke:black;"/>
   <text width="159" height="20" x="1355" y="64" style="fill:black;" font-family="Arial" font-size="16px">category_name</text>
   <rect width="159" height="20" x="1350" y="70" style="fill:none;stroke:black;"/>
   <text width="159" height="20" x="1355" y="84" style="fill:black;" font-family="Arial" font-size="16px">parent_id</text>
   <rect width="159" height="20" x="890" y="390" style="fill:#007;stroke:black;"/>
   <text width="159" height="20" x="895" y="404" style="fill:#fff;" font-family="Arial" font-size="16px"> companies</text>
   <rect width="159" height="20" x="890" y="410" style="fill:#aea;stroke:black;"/>
   <text width="159" height="20" x="895" y="424" style="fill:black;" font-family="Arial" font-size="16px">id</text>
   <rect width="159" height="20" x="890" y="430" style="fill:none;stroke:black;"/>
   <text width="159" height="20" x="895" y="444" style="fill:black;" font-family="Arial" font-size="16px">fullname</text>
   <rect width="159" height="20" x="890" y="450" style="fill:none;stroke:black;"/>
   <text width="159" height="20" x="895" y="464" style="fill:black;" font-family="Arial" font-size="16px">description</text>
   <rect width="159" height="20" x="890" y="470" style="fill:none;stroke:black;"/>
   <text width="159" height="20" x="895" y="484" style="fill:black;" font-family="Arial" font-size="16px">place_id</text>
   <rect width="159" height="20" x="890" y="490" style="fill:none;stroke:black;"/>
   <text width="159" height="20" x="895" y="504" style="fill:black;" font-family="Arial" font-size="16px">email</text>
   <rect width="159" height="20" x="890" y="510" style="fill:none;stroke:black;"/>
   <text width="159" height="20" x="895" y="524" style="fill:black;" font-family="Arial" font-size="16px">www</text>
   <rect width="159" height="20" x="890" y="530" style="fill:none;stroke:black;"/>
   <text width="159" height="20" x="895" y="544" style="fill:black;" font-family="Arial" font-size="16px">picture_url</text>
   <rect width="159" height="20" x="890" y="10" style="fill:#007;stroke:black;"/>
   <text width="159" height="20" x="895" y="24" style="fill:#fff;" font-family="Arial" font-size="16px"> events</text>
   <rect width="159" height="20" x="890" y="30" style="fill:#aea;stroke:black;"/>
   <text width="159" height="20" x="895" y="44" style="fill:black;" font-family="Arial" font-size="16px">id</text>
   <rect width="159" height="20" x="890" y="50" style="fill:none;stroke:black;"/>
   <text width="159" height="20" x="895" y="64" style="fill:black;" font-family="Arial" font-size="16px">title</text>
   <rect width="159" height="20" x="890" y="70" style="fill:none;stroke:black;"/>
   <text width="159" height="20" x="895" y="84" style="fill:black;" font-family="Arial" font-size="16px">description</text>
   <rect width="159" height="20" x="890" y="90" style="fill:none;stroke:black;"/>
   <text width="159" height="20" x="895" y="104" style="fill:black;" font-family="Arial" font-size="16px">category_id</text>
   <rect width="159" height="20" x="890" y="110" style="fill:none;stroke:black;"/>
   <text width="159" height="20" x="895" y="124" style="fill:black;" font-family="Arial" font-size="16px">date_start</text>
   <rect width="159" height="20" x="890" y="130" style="fill:none;stroke:black;"/>
   <text width="159" height="20" x="895" y="144" style="fill:black;" font-family="Arial" font-size="16px">date_end</text>
   <rect width="159" height="20" x="890" y="150" style="fill:none;stroke:black;"/>
   <text width="159" height="20" x="895" y="164" style="fill:black;" font-family="Arial" font-size="16px">place_id</text>
   <rect width="159" height="20" x="890" y="170" style="fill:none;stroke:black;"/>
   <text width="159" height="20" x="895" y="184" style="fill:black;" font-family="Arial" font-size="16px">company_id</text>
   <rect width="159" height="20" x="450" y="100" style="fill:#007;stroke:black;"/>
   <text width="159" height="20" x="455" y="114" style="fill:#fff;" font-family="Arial" font-size="16px"> event_company</text>
   <rect width="159" height="20" x="450" y="120" style="fill:none;stroke:black;"/>
   <text width="159" height="20" x="455" y="134" style="fill:black;" font-family="Arial" font-size="16px">event_id</text>
   <rect width="159" height="20" x="450" y="140" style="fill:none;stroke:black;"/>
   <text width="159" height="20" x="455" y="154" style="fill:black;" font-family="Arial" font-size="16px">company_id</text>
   <rect width="159" height="20" x="1350" y="270" style="fill:#007;stroke:black;"/>
   <text width="159" height="20" x="1355" y="284" style="fill:#fff;" font-family="Arial" font-size="16px"> location</text>
   <rect width="159" height="20" x="1350" y="290" style="fill:#aea;stroke:black;"/>
   <text width="159" height="20" x="1355" y="304" style="fill:black;" font-family="Arial" font-size="16px">id</text>
   <rect width="159" height="20" x="1350" y="310" style="fill:none;stroke:black;"/>
   <text width="159" height="20" x="1355" y="324" style="fill:black;" font-family="Arial" font-size="16px">city</text>
   <rect width="159" height="20" x="1350" y="330" style="fill:none;stroke:black;"/>
   <text width="159" height="20" x="1355" y="344" style="fill:black;" font-family="Arial" font-size="16px">country</text>
   <rect width="159" height="20" x="1350" y="350" style="fill:none;stroke:black;"/>
   <text width="159" height="20" x="1355" y="364" style="fill:black;" font-family="Arial" font-size="16px">latitude</text>
   <rect width="159" height="20" x="1350" y="370" style="fill:none;stroke:black;"/>
   <text width="159" height="20" x="1355" y="384" style="fill:black;" font-family="Arial" font-size="16px">longitude</text>
   <rect width="159" height="20" x="1350" y="390" style="fill:none;stroke:black;"/>
   <text width="159" height="20" x="1355" y="404" style="fill:black;" font-family="Arial" font-size="16px">street</text>
   <rect width="159" height="20" x="1350" y="410" style="fill:none;stroke:black;"/>
   <text width="159" height="20" x="1355" y="424" style="fill:black;" font-family="Arial" font-size="16px">house</text>
   <rect width="159" height="20" x="1350" y="430" style="fill:none;stroke:black;"/>
   <text width="159" height="20" x="1355" y="444" style="fill:black;" font-family="Arial" font-size="16px">zip</text>
   <rect width="159" height="20" x="30" y="10" style="fill:#007;stroke:black;"/>
   <text width="159" height="20" x="35" y="24" style="fill:#fff;" font-family="Arial" font-size="16px"> pictures</text>
   <rect width="159" height="20" x="30" y="30" style="fill:none;stroke:black;"/>
   <text width="159" height="20" x="35" y="44" style="fill:black;" font-family="Arial" font-size="16px">event_id</text>
   <rect width="159" height="20" x="30" y="50" style="fill:none;stroke:black;"/>
   <text width="159" height="20" x="35" y="64" style="fill:black;" font-family="Arial" font-size="16px">picture_url</text>
   <rect width="159" height="20" x="1350" y="120" style="fill:#007;stroke:black;"/>
   <text width="159" height="20" x="1355" y="134" style="fill:#fff;" font-family="Arial" font-size="16px"> places</text>
   <rect width="159" height="20" x="1350" y="140" style="fill:#aea;stroke:black;"/>
   <text width="159" height="20" x="1355" y="154" style="fill:black;" font-family="Arial" font-size="16px">id</text>
   <rect width="159" height="20" x="1350" y="160" style="fill:none;stroke:black;"/>
   <text width="159" height="20" x="1355" y="174" style="fill:black;" font-family="Arial" font-size="16px">name</text>
   <rect width="159" height="20" x="1350" y="180" style="fill:none;stroke:black;"/>
   <text width="159" height="20" x="1355" y="194" style="fill:black;" font-family="Arial" font-size="16px">location_id</text>
   <rect width="159" height="20" x="40" y="290" style="fill:#007;stroke:black;"/>
   <text width="159" height="20" x="45" y="304" style="fill:#fff;" font-family="Arial" font-size="16px"> social_networks</text>
   <rect width="159" height="20" x="40" y="310" style="fill:none;stroke:black;"/>
   <text width="159" height="20" x="45" y="324" style="fill:black;" font-family="Arial" font-size="16px">company_id</text>
   <rect width="159" height="20" x="40" y="330" style="fill:none;stroke:black;"/>
   <text width="159" height="20" x="45" y="344" style="fill:black;" font-family="Arial" font-size="16px">social_network_id</text>
   <rect width="159" height="20" x="40" y="350" style="fill:none;stroke:black;"/>
   <text width="159" height="20" x="45" y="364" style="fill:black;" font-family="Arial" font-size="16px">company_network_url</text>
   <rect width="159" height="20" x="40" y="170" style="fill:#007;stroke:black;"/>
   <text width="159" height="20" x="45" y="184" style="fill:#fff;" font-family="Arial" font-size="16px"> social_networks_list</text>
   <rect width="159" height="20" x="40" y="190" style="fill:#aea;stroke:black;"/>
   <text width="159" height="20" x="45" y="204" style="fill:black;" font-family="Arial" font-size="16px">id</text>
   <rect width="159" height="20" x="40" y="210" style="fill:none;stroke:black;"/>
   <text width="159" height="20" x="45" y="224" style="fill:black;" font-family="Arial" font-size="16px">network</text>
   <rect width="159" height="20" x="40" y="230" style="fill:none;stroke:black;"/>
   <text width="159" height="20" x="45" y="244" style="fill:black;" font-family="Arial" font-size="16px">network_url</text>
   <rect width="159" height="20" x="480" y="550" style="fill:#007;stroke:black;"/>
   <text width="159" height="20" x="485" y="564" style="fill:#fff;" font-family="Arial" font-size="16px"> telephone_numbers</text>
   <rect width="159" height="20" x="480" y="570" style="fill:none;stroke:black;"/>
   <text width="159" height="20" x="485" y="584" style="fill:black;" font-family="Arial" font-size="16px">company_id</text>
   <rect width="159" height="20" x="480" y="590" style="fill:none;stroke:black;"/>
   <text width="159" height="20" x="485" y="604" style="fill:black;" font-family="Arial" font-size="16px">telephone</text>
   <rect width="159" height="20" x="40" y="510" style="fill:#007;stroke:black;"/>
   <text width="159" height="20" x="45" y="524" style="fill:#fff;" font-family="Arial" font-size="16px"> users</text>
   <rect width="159" height="20" x="40" y="530" style="fill:#aea;stroke:black;"/>
   <text width="159" height="20" x="45" y="544" style="fill:black;" font-family="Arial" font-size="16px">id</text>
   <rect width="159" height="20" x="40" y="550" style="fill:none;stroke:black;"/>
   <text width="159" height="20" x="45" y="564" style="fill:black;" font-family="Arial" font-size="16px">login</text>
   <rect width="159" height="20" x="40" y="570" style="fill:none;stroke:black;"/>
   <text width="159" height="20" x="45" y="584" style="fill:black;" font-family="Arial" font-size="16px">hash</text>
   <rect width="159" height="20" x="40" y="590" style="fill:none;stroke:black;"/>
   <text width="159" height="20" x="45" y="604" style="fill:black;" font-family="Arial" font-size="16px">email</text>
   <rect width="159" height="20" x="40" y="610" style="fill:none;stroke:black;"/>
   <text width="159" height="20" x="45" y="624" style="fill:black;" font-family="Arial" font-size="16px">picture_url</text>
   <rect width="159" height="20" x="40" y="400" style="fill:#007;stroke:black;"/>
   <text width="159" height="20" x="45" y="414" style="fill:#fff;" font-family="Arial" font-size="16px"> users_companies</text>
   <rect width="159" height="20" x="40" y="420" style="fill:none;stroke:black;"/>
   <text width="159" height="20" x="45" y="434" style="fill:black;" font-family="Arial" font-size="16px">id_user</text>
   <rect width="159" height="20" x="40" y="440" style="fill:none;stroke:black;"/>
   <text width="159" height="20" x="45" y="454" style="fill:black;" font-family="Arial" font-size="16px">id_company</text>
</svg>
